<!-- <?xml version="1.0" encoding="UTF-8"?>
<svg width="16px" height="17px" viewBox="0 0 16 17" version="1.1" xmlns="http://www.w3.org/2000/svg" xmlns:xlink="http://www.w3.org/1999/xlink">
    <title>logo</title>
    <g id="Page-1" stroke="none" stroke-width="1" fill="none" fill-rule="evenodd">
        <g id="Artboard" transform="translate(-4.000000, -1.000000)">
            <g id="logo" transform="translate(4.000000, 1.000000)">
                <path d="M0.68299078,5.63140249 L6.6829908,0.485074819 C7.4370428,-0.161691606 8.5629572,-0.161691606 9.3170092,0.485074819 L15.3170092,5.63140249 C15.7510391,6.00367918 16,6.54149695 16,7.1068335 L16,15.0394942 C16,16.1222517 15.1045695,17 14,17 L2,17 C0.8954305,17 0,16.1222517 0,15.0394942 L0,7.1068335 C0,6.54149695 0.24896086,6.00367918 0.68299078,5.63140249 Z" fill="#000000" fill-rule="nonzero"></path>
                <circle id="Oval" fill="#FFFFFF" cx="8" cy="10" r="3"></circle>
            </g>
        </g>
    </g>
</svg> -->

<svg width="16" height="17" xmlns="http://www.w3.org/2000/svg"><g fill="none" fill-rule="evenodd"><path d="m.683 5.631 6-5.146a2.03 2.03 0 0 1 2.634 0l6 5.146c.434.373.683.91.683 1.476v7.932C16 16.122 15.105 17 14 17H2c-1.105 0-2-.878-2-1.96V7.106C0 6.54.249 6.004.683 5.63Z" fill="#000" fill-rule="nonzero"/><circle fill="#FFF" cx="8" cy="10" r="3"/></g></svg>